# xmcd
#
# Track frame offsets: 
#        150
#        10252
#        20789
#        33818
#        48636
#        63068
#        76095
#        85815
#        102329
#        114639
#        130217
#        142658
#        155755
#        172585
#        184470
#        200657
#        213088
#        225701
#        236565
#        248718
#        261400
#        275591
#
# Disc length: 3891 seconds
#
# Revision: 1
# Processed by: cddbd v1.5.1PL2 Copyright (c) Steve Scherf et al.
# Submitted via: ExactAudioCopy v0.90b4
#
DISCID=290f3116
DTITLE=Merle Haggard - For The Record - 43 Legendary Hits - CD1
DYEAR=1999
DGENRE=Country
TTITLE0=Mama Tried
TTITLE1=Sing A Sad Song
TTITLE2=Swinging Doors
TTITLE3=I'm A Lonesome Fugitive
TTITLE4=Branded Man
TTITLE5=Sing Me Back Home
TTITLE6=The Legend Of Bonnie And Clyde
TTITLE7=Hungry Eyes
TTITLE8=Workin' Man Blues
TTITLE9=Silver Wings (With Jewel)
TTITLE10=Okie From Muskogee
TTITLE11=The Fightin' Side Of Me
TTITLE12=Daddy Frank (The Guitar Man)
TTITLE13=Carolyn
TTITLE14=It's Not Love (But It's Not Bad)
TTITLE15=Everybody's Had The Blues
TTITLE16=If We Make It Through December
TTITLE17=Old Man From The Mountain
TTITLE18=Things Aren't Funny Anymore
TTITLE19=Movin' On (With Brooks and Dunn)
TTITLE20=Always Wanting You
TTITLE21=It's All In The Movies
EXTD=
EXTT0=
EXTT1=
EXTT2=
EXTT3=
EXTT4=
EXTT5=
EXTT6=
EXTT7=
EXTT8=
EXTT9=
EXTT10=
EXTT11=
EXTT12=
EXTT13=
EXTT14=
EXTT15=
EXTT16=
EXTT17=
EXTT18=
EXTT19=
EXTT20=
EXTT21=
PLAYORDER=
